<svg width="80" height="346" viewBox="0 0 80 346" fill="none" xmlns="http://www.w3.org/2000/svg">
<path d="M75.9999 345.5H76.4999V345V39.5208C76.4999 19.6271 60.3728 3.5 40.4791 3.5C20.5853 3.5 4.45825 19.6271 4.45825 39.5208V345V345.5H4.95825H75.9999Z" fill="#DBDBDB" stroke="black"/>
<path d="M40.4791 48.625C50.5881 48.625 59.8368 46.1707 66.6251 42.0977C73.3736 38.0486 77.9999 32.1763 77.9999 25.3125C77.9999 18.4487 73.3736 12.5764 66.6251 8.5273C59.8368 4.45435 50.5881 2 40.4791 2C30.3701 2 21.1213 4.45435 14.3331 8.5273C7.58463 12.5764 2.95825 18.4487 2.95825 25.3125C2.95825 32.1763 7.58463 38.0486 14.3331 42.0977C21.1213 46.1707 30.3701 48.625 40.4791 48.625Z" fill="#DBDBDB" stroke="black" stroke-width="4"/>
</svg>
